<svg width="33" height="33" viewBox="0 0 33 33" fill="none" xmlns="http://www.w3.org/2000/svg"><g id="Bitcoin_logo 1" clip-path="url(#clip0_2114_1139)"><g id="Group"><path id="Vector" d="M32.4806 20.4679C30.2635 29.2851 21.3431 34.6991 12.4744 32.4819C3.6572 30.2647 -1.75686 21.3444 0.460331 12.4757C2.67752 3.6585 11.5978 -1.75558 20.4666 0.461611C29.3353 2.6788 34.6978 11.6507 32.4806 20.4679Z" fill="#F7931A"/><path id="Vector_2" d="M23.7666 14.1772C24.0759 11.9601 22.4259 10.8257 20.1572 10.0007L20.8791 7.01006L19.0744 6.546L18.3525 9.43349C17.8884 9.33036 17.3728 9.22725 16.9087 9.07256L17.6306 6.13349L15.8259 5.66943L15.1041 8.66005C14.6916 8.55693 14.3306 8.50536 13.9697 8.40224L11.4947 7.7835L11.0306 9.74287C11.0306 9.74287 12.3712 10.0522 12.3197 10.0522C13.0416 10.2585 13.1962 10.7226 13.1447 11.0835L12.3197 14.4866C12.3712 14.4866 12.4228 14.5382 12.5259 14.5382C12.4744 14.5382 12.4228 14.4866 12.3197 14.4866L11.1338 19.2304C11.0306 19.4366 10.8244 19.7976 10.3087 19.6429C10.3087 19.6944 8.96812 19.3335 8.96812 19.3335L8.09155 21.396L10.4634 21.9632C10.9275 22.0663 11.34 22.1694 11.7525 22.2726L10.9791 25.2632L12.7837 25.7272L13.5056 22.7366C14.0212 22.8913 14.4853 22.9944 14.9494 23.0976L14.2275 26.0366L16.0322 26.5007L16.8056 23.5101C19.8994 24.0772 22.2197 23.871 23.1994 21.0866C23.9728 18.8179 23.1478 17.5288 21.5494 16.7038C22.6322 16.5491 23.5088 15.7757 23.7666 14.1772ZM19.6416 19.9523C19.0744 22.221 15.3103 20.9835 14.0728 20.6741L15.0525 16.7038C16.29 17.0132 20.2088 17.6319 19.6416 19.9523ZM20.2087 14.1257C19.6931 16.1882 16.5478 15.1569 15.5166 14.8991L16.3931 11.2897C17.4244 11.496 20.7244 11.9601 20.2087 14.1257Z" fill="white"/></g></g><defs><clipPath id="clip0_2114_1139"><rect width="33" height="33" fill="white"/></clipPath></defs></svg>